<svg width="277" height="277" fill="none" xmlns="http://www.w3.org/2000/svg"><path d="M207.027 271.994H69.973c-35.71 0-64.967-29.257-64.967-64.967V69.973c0-35.71 29.257-64.967 64.967-64.967h136.998c35.766 0 65.023 29.258 65.023 64.967v136.998c0 35.766-29.257 65.023-64.967 65.023Z" fill="url(#a)"/><path fill-rule="evenodd" clip-rule="evenodd" d="M69.973 10.012c-32.945 0-59.961 27.016-59.961 59.961v137.054c0 32.945 27.016 59.961 59.961 59.961h137.054c32.942 0 59.961-27.013 59.961-60.017V69.973c0-32.942-27.013-59.961-60.017-59.961H69.973ZM0 69.973C0 31.5 31.499 0 69.973 0h136.998C245.499 0 277 31.496 277 69.973v136.998C277 245.499 245.504 277 207.027 277H69.973C31.5 277 0 245.501 0 207.027V69.973Z" fill="#fff"/><path d="M222.045 57.736H55.289s-1.335 2.948-2.67 10.958c-1.28 7.62-1.502 13.405-1.558 13.405 11.681-1.001 24.363-1.725 37.601-2.28-6.34 22.248-11.736 47.723-15.908 71.53-4.283 24.029-7.453 46.445-11.124 67.97h25.697c1.057-7.675 2.28-15.908 3.671-24.64 14.685-9.567 30.871-20.247 47.669-31.761 17.354 11.848 33.985 22.805 49.003 32.595 1.335 8.399 2.448 16.353 3.504 23.806h25.698c-3.782-21.692-6.953-43.997-11.236-67.97-4.171-23.751-9.455-49.17-15.852-71.42 12.737.557 24.974 1.28 36.21 2.225 0 0 0-5.006-1.112-12.236-1.113-7.343-2.837-12.182-2.837-12.182Zm-129.823 129.1c2.559-15.63 5.674-32.65 9.233-49.893 10.291 7.342 21.026 14.906 31.761 22.249-14.406 9.845-28.256 19.134-40.994 27.644Zm10.568-56.401c3.783-17.911 8.01-35.766 12.293-51.395 15.964-.279 32.317-.279 48.28 0 4.228 15.407 8.399 32.984 12.182 50.616a4028.42 4028.42 0 0 1-36.878 25.809 3536.717 3536.717 0 0 1-35.877-25.03Zm41.272 28.701c11.125-7.62 22.249-15.463 32.817-23.028 3.672 17.855 6.898 35.487 9.512 51.562-13.127-8.677-27.478-18.3-42.329-28.534Z" fill="#fff"/><defs><linearGradient id="a" x1="59.242" y1="1.221" x2="217.758" y2="275.779" gradientUnits="userSpaceOnUse"><stop stop-color="#4E6DB4"/><stop offset="1" stop-color="#0C4C7D"/></linearGradient></defs></svg>